<svg width="524" height="524" viewBox="0 0 524 524" fill="none" xmlns="http://www.w3.org/2000/svg">
<path d="M262 123.111V512" stroke="#FFDA33" stroke-width="24" stroke-linecap="round" stroke-linejoin="round"/>
<path d="M37 428.667C30.3696 428.667 24.0107 425.74 19.3223 420.531C14.6339 415.321 12 408.256 12 400.889V39.7778C12 32.4107 14.6339 25.3453 19.3223 20.1359C24.0107 14.9266 30.3696 12 37 12H162C188.522 12 213.957 23.7063 232.711 44.5437C251.464 65.3811 262 93.6426 262 123.111C262 93.6426 272.536 65.3811 291.289 44.5437C310.043 23.7063 335.478 12 362 12H487C493.63 12 499.989 14.9266 504.678 20.1359C509.366 25.3453 512 32.4107 512 39.7778V400.889C512 408.256 509.366 415.321 504.678 420.531C499.989 425.74 493.63 428.667 487 428.667H337C317.109 428.667 298.032 437.446 283.967 453.074C269.902 468.702 262 489.899 262 512C262 489.899 254.098 468.702 240.033 453.074C225.968 437.446 206.891 428.667 187 428.667H37Z" stroke="#FFDA33" stroke-width="24" stroke-linecap="round" stroke-linejoin="round"/>
</svg>
