<svg width="551" height="650" viewBox="0 0 551 650" fill="none" xmlns="http://www.w3.org/2000/svg">
<path d="M275.018 201.763L241.112 257.551C233.507 269.849 239.844 280.047 254.738 280.047H294.982C310.192 280.047 316.212 290.245 308.607 302.542L275.018 358.331" stroke="#FFDA33" stroke-width="50" stroke-linecap="round" stroke-linejoin="round"/>
<path d="M157.773 506.2V471.407C84.8903 429.716 25 348.433 25 262.052C25 113.583 169.18 -2.79326 332.056 30.7998C403.671 45.7966 466.413 90.7873 499.052 152.874C565.28 278.847 495.566 412.619 393.214 471.107V505.9C393.214 514.598 396.7 534.694 362.793 534.694H188.193C153.336 534.994 157.773 522.097 157.773 506.2Z" stroke="#FFDA33" stroke-width="50" stroke-linecap="round" stroke-linejoin="round"/>
<path d="M164.107 624.978C236.673 605.482 313.358 605.482 385.923 624.978" stroke="#FFDA33" stroke-width="50" stroke-linecap="round" stroke-linejoin="round"/>
</svg>
