<svg width="564" height="564" viewBox="0 0 564 564" fill="none" xmlns="http://www.w3.org/2000/svg">
<path d="M254.335 23.476C255.541 17.02 258.967 11.1891 264.019 6.99301C269.072 2.79694 275.432 0.5 282 0.5C288.568 0.5 294.928 2.79694 299.981 6.99301C305.033 11.1891 308.459 17.02 309.665 23.476L339.243 179.896C341.344 191.017 346.749 201.246 354.751 209.249C362.754 217.251 372.983 222.656 384.104 224.757L540.524 254.335C546.98 255.541 552.811 258.967 557.007 264.019C561.203 269.072 563.5 275.432 563.5 282C563.5 288.568 561.203 294.928 557.007 299.981C552.811 305.033 546.98 308.459 540.524 309.665L384.104 339.243C372.983 341.344 362.754 346.749 354.751 354.751C346.749 362.754 341.344 372.983 339.243 384.104L309.665 540.524C308.459 546.98 305.033 552.811 299.981 557.007C294.928 561.203 288.568 563.5 282 563.5C275.432 563.5 269.072 561.203 264.019 557.007C258.967 552.811 255.541 546.98 254.335 540.524L224.757 384.104C222.656 372.983 217.251 362.754 209.249 354.751C201.246 346.749 191.017 341.344 179.896 339.243L23.476 309.665C17.02 308.459 11.1891 305.033 6.99301 299.981C2.79694 294.928 0.5 288.568 0.5 282C0.5 275.432 2.79694 269.072 6.99301 264.019C11.1891 258.967 17.02 255.541 23.476 254.335L179.896 224.757C191.017 222.656 201.246 217.251 209.249 209.249C217.251 201.246 222.656 191.017 224.757 179.896L254.335 23.476Z" fill="#FFDA33" stroke="#F1C500" stroke-linecap="round" stroke-linejoin="round"/>
</svg>
