<svg width="800" height="800" viewBox="0 0 800 800" fill="none" xmlns="http://www.w3.org/2000/svg">
<path d="M749.206 751.346C749.2 751.353 749.195 751.36 749.19 751.365C749.187 751.37 749.182 751.373 749.18 751.376C749.182 751.373 749.187 751.369 749.191 751.363C749.196 751.359 749.2 751.352 749.206 751.346ZM749.206 751.346C749.207 751.344 749.209 751.343 749.21 751.342C749.212 751.339 749.215 751.336 749.218 751.333C749.214 751.338 749.21 751.342 749.206 751.346ZM23.5938 36.7979C20.9149 28.7658 28.3969 21.1147 36.416 23.4736L36.7979 23.5938L178.678 70.9092L178.679 70.9102C180.117 71.39 181.435 72.1777 182.537 73.2178L182.755 73.4297L383.737 274.398L400.001 290.661L416.264 274.397L617.243 73.417C618.389 72.2711 619.787 71.4074 621.323 70.8955H621.324L763.202 23.6123L763.201 23.6113C771.235 20.9343 778.884 28.4187 776.524 36.4375L776.404 36.8193L729.089 178.664L729.088 178.665C728.577 180.197 727.714 181.594 726.565 182.743L525.606 383.733L509.345 399.997L525.608 416.259L619.206 509.852L645.571 536.215L657.302 500.823C659.343 494.665 660.892 488.23 661.526 481.735C662.088 475.994 667.196 471.8 672.93 472.36C678.669 472.922 682.865 478.028 682.305 483.765C679.584 511.598 660.176 548.822 629.626 585.122L616.035 601.271L630.96 616.195L742.841 728.076L759.104 711.822C763.178 707.75 769.788 707.746 773.872 711.828C777.946 715.904 777.944 722.513 773.869 726.588L750.335 750.122L750.24 750.22C750.236 750.224 750.231 750.229 750.227 750.233L750.129 750.328L726.588 773.869C722.512 777.945 715.902 777.945 711.826 773.869C707.75 769.793 707.75 763.183 711.826 759.106L728.09 742.843L711.826 726.58L601.333 616.087L585.169 629.852C579.841 634.389 574.447 638.719 569.024 642.807L569.012 642.816L569 642.825C568.709 643.045 568.423 643.259 568.074 643.521C566.137 644.97 564.263 646.351 562.42 647.668L562.399 647.684L562.378 647.699C561.606 648.254 561.089 648.602 559.927 649.419C559.112 649.991 558.357 650.518 557.625 651.02L557.566 651.061C556.295 651.938 556.138 652.062 555.581 652.443C555.424 652.539 555.23 652.656 555.017 652.794L554.85 652.901L554.684 653.012C527.605 671.102 502.613 681.164 483.393 682.33H483.392C477.64 682.679 472.692 678.299 472.342 672.543C471.993 666.79 476.374 661.841 482.127 661.492H482.129C488.556 661.102 494.899 659.718 500.906 657.829L537.093 646.45L510.271 619.626L416.25 525.6L399.985 509.333L383.721 525.601L290.139 619.206L263.78 645.57L299.168 657.299C305.327 659.34 311.766 660.891 318.267 661.526V661.527C324.005 662.089 328.201 667.195 327.642 672.931C327.08 678.67 321.973 682.866 316.236 682.306H316.237C288.405 679.585 251.181 660.176 214.878 629.625L198.729 616.035L183.805 630.959L71.9219 742.842L88.1797 759.105C92.2538 763.181 92.2535 769.789 88.1777 773.864C84.1016 777.94 77.492 777.94 73.416 773.864L49.9277 750.376L49.8467 750.296L49.7598 750.213C49.7418 750.194 49.7245 750.175 49.7061 750.156L49.625 750.073L26.1318 726.58C22.0557 722.504 22.0557 715.893 26.1318 711.817C30.2081 707.741 36.8175 707.742 40.8936 711.817L57.1572 728.079L73.4189 711.815L168.898 616.333L183.909 601.322L170.146 585.159C165.646 579.874 161.351 574.527 157.292 569.148L157.266 569.113L157.239 569.079L156.365 567.917L156.363 567.915L154.698 565.667C154.148 564.917 153.602 564.167 153.061 563.416L153.045 563.396L153.029 563.374C151.83 561.72 150.641 560.028 149.417 558.265H149.416C149.409 558.255 149.402 558.246 149.396 558.236H149.397C148.497 556.94 148.09 556.378 147.571 555.621C147.477 555.463 147.341 555.236 147.177 554.976L147.018 554.724L146.852 554.476L146.014 553.211C128.533 526.694 118.815 502.255 117.67 483.385L117.651 482.848C117.596 477.328 121.882 472.674 127.458 472.335C133.211 471.986 138.159 476.367 138.508 482.12L138.509 482.129C138.901 488.559 140.286 494.905 142.179 500.92L153.564 537.096L290.659 400.001L274.397 383.737L73.4307 182.755L73.4297 182.754C72.2833 181.607 71.4221 180.213 70.9111 178.68L70.9102 178.677L23.5947 36.7988L23.5938 36.7979ZM64.5635 93.6592L88.2168 164.588L89.9346 169.736L93.7715 173.574L312.774 392.591C312.798 392.614 312.822 392.637 312.845 392.66L407.183 486.998C407.268 487.086 407.357 487.181 407.453 487.277V487.278L536.328 616.162L551.088 630.923L567.207 617.659C575.89 610.514 584.411 602.779 592.658 594.532C601.484 585.707 609.86 576.395 617.575 566.862L630.602 550.769L615.961 536.128L487.233 407.41L486.495 406.673L486.476 406.656L393.017 313.23C392.894 313.097 392.75 312.943 392.587 312.774L392.46 312.644L392.33 312.514L173.573 93.7725L169.735 89.9355L164.587 88.2178L93.6582 64.5645L50.0059 50.0068L64.5635 93.6592ZM169.082 551.103L182.359 567.222C189.3 575.648 196.78 583.893 204.804 591.995L204.83 592.023L204.857 592.051C205.417 592.612 205.988 593.181 206.569 593.755C207.924 595.096 209.323 596.468 210.759 597.849L212.212 599.236C212.246 599.269 212.266 599.288 212.267 599.289L212.317 599.338C219.068 605.728 226.042 611.838 233.125 617.571L249.221 630.6L263.861 615.955L368.961 510.832L385.22 494.569L368.96 478.308L321.686 431.028L305.422 414.763L169.082 551.103ZM313.857 393.607C313.845 393.596 313.832 393.585 313.818 393.573C313.809 393.565 313.8 393.557 313.79 393.548C313.815 393.57 313.837 393.59 313.857 393.607ZM313.521 393.305C313.449 393.238 313.37 393.163 313.284 393.082C313.369 393.162 313.448 393.237 313.521 393.305ZM706.346 64.5674L635.415 88.2061L630.264 89.9229L626.424 93.7627L431.027 289.158L414.764 305.423L431.028 321.686L478.319 368.974L494.584 385.237L510.847 368.972L706.229 173.56L710.065 169.723L711.782 164.575L735.436 93.666L749.995 50.0205L706.346 64.5674Z" stroke="#FFDA33" stroke-width="46"/>
</svg>
