<svg width="486" height="795" viewBox="0 0 486 795" fill="none" xmlns="http://www.w3.org/2000/svg">
<path d="M182.383 26.5127L182.745 26.5225H333.874C340.543 26.4941 347.321 28.3254 353.653 32.1416C359.974 35.9508 365.761 41.6978 370.252 49.1895C374.372 56.3868 377.043 64.8312 377.854 73.8193C378.669 82.863 377.554 91.9445 374.685 100.232L328.585 229.62L315.975 265.015H416.315L417.012 265.023C424.21 265.188 431.547 267.641 438.206 272.585C445.133 277.727 451.087 285.418 454.889 295.102L454.941 295.234L454.994 295.366C458.782 304.718 460.263 315.287 459.128 325.784C458.002 336.199 454.388 345.746 449.021 353.406L143.826 765.225C142.785 766.619 141.708 767.451 140.837 767.91C139.987 768.358 139.264 768.495 138.677 768.495H138.463L138.249 768.499C137.126 768.517 135.885 768.281 134.571 767.65C133.181 766.687 131.513 764.849 130.38 761.863C129.134 758.581 128.865 754.711 129.733 751.082L129.748 751.022L129.762 750.963L192.593 483.058L200.227 450.507H70.8721C64.2029 450.535 57.4251 448.703 51.0928 444.887C44.7578 441.069 38.9583 435.305 34.4629 427.788C30.3383 420.645 27.6445 412.256 26.791 403.313C25.9356 394.351 26.9778 385.332 29.7559 377.072L141.798 59.3154L141.839 59.1982L141.88 59.0801C145.511 48.466 151.706 39.9839 159.062 34.3828C166.353 28.8322 174.486 26.2967 182.383 26.5127Z" stroke="#FFDA33" stroke-width="53"/>
</svg>
