<svg width="500" height="500" viewBox="0 0 500 500" fill="none" xmlns="http://www.w3.org/2000/svg">
<path d="M250 0C112.147 0 0 112.147 0 250C0 387.853 112.147 500 250 500C387.853 500 500 387.853 500 250C500 112.147 387.824 0 250 0ZM30.1471 264.706H116.529C117.824 294.824 122.735 324.441 131.618 352.941H55.0588C40.9118 326.294 32.2353 296.382 30.1471 264.706ZM116.529 235.294H30.1471C32.2353 203.618 40.9118 173.706 55.0588 147.059H131.529C122.676 175.559 117.794 205.176 116.529 235.294ZM162.676 147.059H336.088C345.794 175.441 351.441 205.059 352.824 235.294H145.941C147.294 205.059 152.971 175.441 162.676 147.059ZM145.941 264.706H352.853C351.412 294.941 345.765 324.559 336.029 352.941H162.765C153.029 324.559 147.353 294.941 145.941 264.706ZM382.265 264.706H469.853C467.765 296.382 459.088 326.294 444.941 352.941H367.176C376.059 324.441 380.971 294.824 382.265 264.706ZM382.265 235.294C381 205.176 376.118 175.559 367.265 147.059H444.941C459.059 173.706 467.735 203.618 469.853 235.294H382.265ZM426.059 117.647H356.824C345.294 89.5588 329.882 63 311.235 38.2353C357.647 51.6765 397.647 80 426.059 117.647ZM266.412 30.2353C290.647 56.6176 310.059 86.1176 324.412 117.647H174.353C188.676 86.1471 208.059 56.6765 232.294 30.2941C238.147 29.8529 244 29.4118 250 29.4118C255.529 29.4118 260.971 29.8529 266.412 30.2353ZM187.265 38.6176C168.765 63.2647 153.412 89.7059 141.971 117.647H73.9118C102 80.3824 141.471 52.2353 187.265 38.6176ZM73.9118 382.353H142.059C153.559 410.324 168.971 436.794 187.559 461.441C141.647 447.882 102.059 419.706 73.9118 382.353ZM232.647 469.706C208.353 443.324 188.882 413.853 174.471 382.353H324.294C309.882 413.882 290.412 443.382 266.088 469.765C260.765 470.147 255.412 470.588 250 470.588C244.118 470.588 238.382 470.147 232.647 469.706ZM310.912 461.853C329.618 437.088 345.147 410.471 356.706 382.353H426.059C397.588 420.088 357.471 448.441 310.912 461.853Z" fill="#FFDA33"/>
</svg>
